<?xml version="1.0" encoding="utf-8"?>
<!-- Generator: Adobe Illustrator 16.0.0, SVG Export Plug-In . SVG Version: 6.00 Build 0)  -->
<!DOCTYPE svg PUBLIC "-//W3C//DTD SVG 1.1//EN" "http://www.w3.org/Graphics/SVG/1.1/DTD/svg11.dtd">
<svg version="1.1" id="Layer_1" xmlns="http://www.w3.org/2000/svg" xmlns:xlink="http://www.w3.org/1999/xlink" x="0px" y="0px"
	 width="204px" height="200px" viewBox="6.456 9.456 204 200" enable-background="new 6.456 9.456 204 200" xml:space="preserve">
<g id="Layer_1_1_">
</g>
<g id="Lineas_guia">
</g>
<g id="Layer_11">
</g>
<g id="Layer_7">
</g>
<g id="Layer_9">
</g>
<g id="H_colores">
</g>
<g id="Layer_8">
</g>
<g id="Layer_12">
	<path fill="none" stroke="#E33D9C" stroke-width="4" stroke-miterlimit="10" d="M197.112,109.956
		c0,50.803-41.182,91.986-91.986,91.986c-50.804,0-91.986-41.185-91.986-91.986c-0.004-24.198,9.342-46.214,24.618-62.637
		C54.554,29.262,78.519,17.97,105.126,17.97C155.931,17.97,197.112,59.151,197.112,109.956z"/>
	<path fill="none" stroke="#2B73B2" stroke-width="4" stroke-miterlimit="10" d="M206.772,109.958
		c0,50.805-41.187,91.984-91.987,91.984c-50.806,0-91.99-41.18-91.99-91.984c0-24.199,9.344-46.216,24.622-62.639
		C64.209,29.262,88.176,17.97,114.785,17.97C165.588,17.97,206.772,59.151,206.772,109.958z"/>
	<path fill="none" stroke="#E33D9C" stroke-width="4" stroke-miterlimit="10" d="M140.726,102.455l-30.091-37.242
		c0,0-3.736-5.091-7.368-1.758c-3.632,3.333,0.368,7.667,0.368,7.667l32.5,41.167l0.167,41.667c0,0,0,5,5,5s4.5-5,4.5-5l0.014-41.5
		l32.486-41.833c0,0,3.331-4.208-0.627-7.375c-4.167-3.333-7.705,1.375-7.705,1.375L140.726,102.455z"/>
	<path fill="none" stroke="#2B73B2" stroke-width="4" stroke-miterlimit="10" d="M44.738,61.891c5.188-0.125,5.749,3.065,5.729,6.73
		l-0.167,37h47.667V66.955c0,0-0.667-6,4.5-6s5,6.667,5,6.667l0.629,84.333c0,0,0.802,6.999-4.83,7
		c-5.632,0.001-5.299-6.5-5.299-6.5L97.8,116.622H50.635l-0.834,36.833c0,0,0.333,5.666-5,5.5s-4.333-5.667-4.333-5.667
		l-0.074-84.667C40.394,68.622,39.738,62.078,44.738,61.891z"/>
</g>
<g id="H">
</g>
<g id="Y">
</g>
<g id="Layer_5">
</g>
</svg>
