<?xml version="1.0" encoding="utf-8"?>
<!-- Generator: Adobe Illustrator 16.0.0, SVG Export Plug-In . SVG Version: 6.00 Build 0)  -->
<!DOCTYPE svg PUBLIC "-//W3C//DTD SVG 1.1//EN" "http://www.w3.org/Graphics/SVG/1.1/DTD/svg11.dtd">
<svg version="1.1" xmlns="http://www.w3.org/2000/svg" xmlns:xlink="http://www.w3.org/1999/xlink" x="0px" y="0px"
	 width="219.912px" height="219.912px" viewBox="0 0 219.912 219.912" enable-background="new 0 0 219.912 219.912"
	 xml:space="preserve">
<g id="Layer_1">
</g>
<g id="Lineas_guia">
</g>
<g id="Layer_11">
</g>
<g id="Layer_7">
</g>
<g id="Layer_9">
</g>
<g id="H_colores">
</g>
<g id="Layer_8">
</g>
<g id="Layer_12">
	<path fill-rule="evenodd" clip-rule="evenodd" fill="none" stroke="#E33D9C" stroke-width="4" stroke-miterlimit="10" d="
		M197.113,109.956c0,50.803-41.183,91.986-91.987,91.986c-50.804,0-91.986-41.183-91.986-91.986
		c-0.004-24.198,9.342-46.214,24.618-62.637C54.554,29.262,78.519,17.97,105.126,17.97
		C155.931,17.97,197.113,59.151,197.113,109.956z"/>
	<path fill-rule="evenodd" clip-rule="evenodd" fill="none" stroke="#2B73B2" stroke-width="4" stroke-miterlimit="10" d="
		M206.772,109.958c0,50.805-41.185,91.985-91.987,91.985c-50.806,0-91.99-41.18-91.99-91.985c0-24.199,9.344-46.216,24.622-62.639
		C64.209,29.262,88.176,17.97,114.785,17.97C165.588,17.97,206.772,59.151,206.772,109.958z"/>
	<path fill-rule="evenodd" clip-rule="evenodd" fill="none" stroke="#E33D9C" stroke-width="4" stroke-miterlimit="10" d="
		M140.726,102.455l-30.091-37.242c0,0-3.736-5.091-7.368-1.758s0.368,7.667,0.368,7.667l32.5,41.167l0.167,41.667c0,0,0,5,5,5
		s4.5-5,4.5-5l0.014-41.5l32.486-41.833c0,0,3.331-4.208-0.627-7.375c-4.167-3.333-7.706,1.375-7.706,1.375L140.726,102.455z"/>
	<path fill-rule="evenodd" clip-rule="evenodd" fill="none" stroke="#2B73B2" stroke-width="4" stroke-miterlimit="10" d="
		M44.301,62.053c4.667-0.598,6.167,1.902,6.167,6.568l-0.167,37h47.667V66.955c0,0-0.667-6,4.5-6s5,6.667,5,6.667l0.629,84.333
		c0,0,0.802,6.999-4.83,7s-5.299-6.5-5.299-6.5l-0.167-35.833H50.635l-0.834,36.833c0,0,0.333,5.666-5,5.5s-4.333-5.667-4.333-5.667
		l-0.074-84.667C40.394,68.622,39.341,62.689,44.301,62.053z"/>
</g>
<g id="H">
</g>
<g id="Y">
</g>
<g id="Layer_5">
</g>
</svg>
